# xmcd
#
# Track frame offsets: 
#        150
#        18323
#        33969
#        56409
#        81384
#        100272
#        114226
#        130059
#        142275
#        162430
#        177742
#        203433
#        218103
#        238938
#        259445
#        278149
#        301195
#        319218
#        341004
#
# Disc length: 4782 seconds
#
# Revision: 1
# Processed by: cddbd v1.5.2PL0 Copyright (c) Steve Scherf et al.
# Submitted via: ExactAudioCopy v1.1
#
DISCID=1b12ac13
DTITLE=Various Artist - Akella Presents - vol.98 - Rockin' Blues  CD1
DYEAR=2016
DGENRE=Rockin' Blues
TTITLE0=Johnny Neel - Every Kinda' Blues
TTITLE1=Sean Costello - Same Old Game
TTITLE2=Mike ''Junior'' Clark - Stabbed In The Back Again
TTITLE3=Mojo Monkeys - Girl Might Do
TTITLE4=Billy Gibbons - Pickin' Up Chicks On Dowling Street
TTITLE5=Terry Davidson and the Gears - Hound Dog Blues
TTITLE6=The Five Dollar Sugar - Walk Low
TTITLE7=Fast Eddie Clarke - Fast Train
TTITLE8=Lazer Lloyd - Moroccan Women
TTITLE9=Willie May - Friend Of The Friendless
TTITLE10=The Maynard Brothers Band - Call The Warden
TTITLE11=Red Rooster - Iґm An Easy Man
TTITLE12=Mick Clarke - Some Days
TTITLE13=The Kentucky Headhunters - Muddy Water
TTITLE14=Pepe Ahlqvist and The Rolling Tumbleweed - Blind Tiger
TTITLE15=Slim Bawb and the Fabulous Stumpgrinders - Under a Fool's Moon
TTITLE16=Tinsley Ellis - Just Dropped In
TTITLE17=Bluesville Station - Wrong Side Of The Bed
TTITLE18=Delta Moon - Wrong Side of Town
EXTD=
EXTT0=
EXTT1=
EXTT2=
EXTT3=
EXTT4=
EXTT5=
EXTT6=
EXTT7=
EXTT8=
EXTT9=
EXTT10=
EXTT11=
EXTT12=
EXTT13=
EXTT14=
EXTT15=
EXTT16=
EXTT17=
EXTT18=
PLAYORDER=
